REM DIRINDEX 1
REM DIRNAME folder01
TITLE ""
FILE "Disk2Track06.mp3" MP3
  TRACK 01 AUDIO
    TITLE "1:cjc069_0464"
    INDEX 01 00:00:00
  TRACK 02 AUDIO
    TITLE "1:cjc069_0465"
    INDEX 01 00:05:30
  TRACK 03 AUDIO
    TITLE "1:cjc069_0466"
    INDEX 01 00:10:29
  TRACK 04 AUDIO
    TITLE "1:cjc069_0467"
    INDEX 01 00:21:29
  TRACK 05 AUDIO
    TITLE "0:"
    INDEX 01 00:33:17
